<svg width="100" height="81" viewBox="0 0 100 81" fill="none" xmlns="http://www.w3.org/2000/svg">
<path d="M99.9687 64.4744H0.433975L0 38.5522C0 34.2438 0.72702 29.3895 3.21231 25.0565C5.54996 20.9807 9.44679 17.368 15.7618 15.1153C16.1264 14.9856 16.4978 14.8603 16.8781 14.7395C20.9717 13.4398 26.0162 12.6837 32.2171 12.6837C32.405 12.6837 32.5907 12.6837 32.7763 12.6882C35.6799 12.7217 38.2704 13.0237 40.5946 13.536C56.9022 17.1197 60.1123 31.0248 65.8681 35.369C65.9754 35.4495 66.0828 35.5256 66.1902 35.5994C67.1074 36.2235 68.0961 36.6038 69.2124 36.6642C72.6573 36.6642 75.7086 36.7962 78.4175 37.0467C80.2989 37.2212 82.0146 37.4516 83.5783 37.7357C89.9492 38.89 93.7946 40.9055 96.13 43.4602C99.4452 47.0819 99.7204 51.7795 99.8434 56.6092C99.8837 58.0945 99.9105 59.5911 99.9307 61.072C99.9351 61.4008 99.9396 61.7296 99.9441 62.054C99.9441 62.2173 99.9463 62.3806 99.9485 62.5439C99.953 62.8705 99.9553 63.1949 99.9575 63.517C99.9597 63.8391 99.962 64.159 99.9642 64.4789L99.9687 64.4744Z" fill="#DDEAF0"/>
<path d="M83.5805 37.7335V58.6963H65.8703V35.3668C65.9777 35.4473 66.0851 35.5233 66.1924 35.5972C67.1096 36.2213 68.0983 36.6016 69.2146 36.662C72.6596 36.662 75.7108 36.794 78.4198 37.0445C80.3011 37.219 82.0169 37.4494 83.5805 37.7335Z" fill="#C0DBF2"/>
<path d="M96.1323 43.4557V58.6963H78.4198V37.0445C80.3011 37.219 82.0169 37.4494 83.5805 37.7335C89.9515 38.8878 93.7968 40.9033 96.1323 43.4579V43.4557Z" fill="#B1D3F2"/>
<path d="M66.1924 35.5971V58.6963H40.5946V13.5338C56.9022 17.1174 60.1123 31.0225 65.8681 35.3667C65.9755 35.4473 66.0828 35.5233 66.1902 35.5971H66.1924Z" fill="#B1D3F2"/>
<path d="M40.5968 15.1243H32.4475V58.6963H40.5968V15.1243Z" fill="#C0DBF2"/>
<path d="M16.8803 14.7395V58.6963H3.21228V25.0542C5.54993 20.9784 9.44676 17.3657 15.7618 15.1131C16.1264 14.9833 16.4977 14.858 16.878 14.7372L16.8803 14.7395Z" fill="#C0DBF2"/>
<path d="M32.7763 12.6859V58.6963H15.7618V15.1153C16.1264 14.9855 16.4977 14.8603 16.878 14.7395C20.9717 13.4398 26.0161 12.6837 32.2171 12.6837C32.405 12.6837 32.5906 12.6837 32.7763 12.6882V12.6859Z" fill="#B1D3F2"/>
<path d="M0.501102 68.4384C0.523472 69.8186 0.818754 71.1317 1.25944 72.3643L99.0694 72.3777C99.6578 70.9371 99.9821 69.36 99.9821 67.7069C99.9821 64.6086 99.953 61.1928 99.877 57.7925H0.322144L0.501102 68.4384Z" fill="#DDD3D4"/>
<path d="M93.8729 41.5005C91.2466 42.8137 89.9335 44.9791 89.9335 44.9791C83.7371 43.2924 80.5874 49.0437 80.5874 49.0437L99.0739 49.113C98.3446 46.2116 96.8816 43.5877 93.8729 41.5028V41.5005Z" fill="#A0B56D"/>
<path d="M75.2858 48.3882C69.2996 43.0172 64.8815 47.3011 64.8815 47.3011C64.8815 47.3011 63.0181 43.0284 55.909 39.825C48.7999 36.6239 42.4155 40.4067 42.4155 40.4067C42.4155 40.4067 38.5366 32.0739 29.403 32.9486C20.2693 33.8232 18.3567 41.552 18.3567 41.552C18.3567 41.552 12.9835 39.3754 8.88755 40.6483C4.79387 41.9211 4.42029 48.386 4.42029 48.386H75.2858V48.3882Z" fill="#A0B56D"/>
<path d="M0.134216 46.5539L0.438447 68.4562C0.46529 70.0736 0.897029 71.6238 1.53681 73.0309C3.56352 77.4914 8.24105 80.5919 13.3727 80.5561L87.7883 80.0349C94.5485 79.9857 100.004 74.4916 100 67.7314C100 64.2887 99.9642 60.4523 99.868 56.6807C99.7763 53.1552 99.604 49.7036 98.2193 46.6904C97.8346 46.6009 97.4364 46.5517 97.0248 46.5517H0.134216V46.5539Z" fill="#FDD69B"/>
<path d="M90.9603 46.5539C93.8684 46.5539 96.2262 48.9117 96.2262 51.8198V76.6011C98.5527 74.3619 100 71.2167 100 67.7337C100 64.291 99.9642 60.4545 99.868 56.683C99.7763 53.1575 99.6354 49.7058 98.2507 46.6949C97.8659 46.6054 97.4364 46.5562 97.0248 46.5562H90.9626L90.9603 46.5539Z" fill="#F2C58B"/>
<path d="M85.2605 78.1961C84.7102 75.5162 84.5447 73.6147 81.5024 69.8454C80.9476 69.2437 80.6814 66.8769 80.6769 65.5168C80.6702 63.2441 80.2899 61.3158 78.5137 59.8953C77.0127 58.6963 74.7556 57.7187 71.38 57.7187C67.5592 57.7187 66.0358 58.6873 64.5415 60.2107C63.1098 61.6692 63.3224 63.5796 63.1658 65.6153C63.0092 67.6465 60.7364 72.7222 60.6872 74.7489C60.6425 76.6011 61.0854 78.0216 62.2866 80.2139L85.5893 80.0506C85.482 79.2989 85.3567 78.6592 85.2605 78.1961Z" fill="#9E5959"/>
<path d="M85.8399 79.7933C85.1352 74.3328 83.6342 71.8542 82.4128 70.436C81.4576 69.3287 81.1198 67.68 81.0169 67.0111C80.9923 66.8434 80.8402 66.727 80.6702 66.7427C68.0133 67.9149 64.0248 66.8098 63.0607 66.4183C62.9197 66.3602 62.7587 66.4385 62.7184 66.5839C62.5998 67.0022 62.3605 67.8455 62.0406 68.9461C61.5775 70.5478 60.3114 73.6997 60.3114 74.807C60.3114 76.8919 61.0966 78.7576 61.9176 80.2161L85.869 80.0483C85.8578 79.9633 85.8488 79.8783 85.8376 79.7933H85.8399Z" fill="#6482A1"/>
<path d="M62.4164 67.642C62.5484 67.1767 62.6513 66.8143 62.7184 66.5839C62.7609 66.4362 62.9197 66.3602 63.0606 66.4183C64.0248 66.8098 68.0133 67.9149 80.6702 66.7427C80.838 66.727 80.9901 66.8456 81.0169 67.0111C81.046 67.2058 81.0975 67.4831 81.1758 67.8053C79.0014 68.1878 71.5679 69.2325 62.4186 67.642H62.4164Z" fill="#537291"/>
<path d="M66.8546 46.9364C66.9776 46.5942 67.0581 46.2295 67.0917 45.8515C67.302 43.449 65.528 41.3305 63.1255 41.1203C61.4657 40.9749 59.94 41.7779 59.0878 43.0799C59.0878 43.0799 58.0498 44.5563 57.146 47.9319C56.2423 51.3075 52.9696 63.9308 52.9696 63.9308C52.9159 64.112 52.8801 64.2999 52.8645 64.4945C52.7235 66.0962 52.3276 68.0737 54.1507 68.7314C55.9739 69.3891 57.0163 68.5793 57.457 67.3735C57.457 67.3735 65.915 50.7729 66.8568 46.9342L66.8546 46.9364Z" fill="#914D4D"/>
<path d="M61.2531 41.0263C61.2531 41.0263 59.2935 41.3529 58.0185 43.9903C56.7456 46.6255 55.8642 49.6208 55.6025 51.1666C55.3408 52.7146 54.7301 55.2558 54.4057 55.9045C54.0814 56.5532 53.578 57.9625 53.8577 58.2175C54.1373 58.4726 55.6808 58.873 57.1237 59.6336C58.5665 60.3941 60.6044 60.1592 61.752 60.5887C62.8996 61.0182 62.8011 59.3696 62.9868 58.7164C63.1702 58.0632 64.924 53.7301 66.2931 50.3814C67.6621 47.0326 68.7649 40.259 61.2531 41.0263Z" fill="#4F9D69"/>
<path d="M66.3624 44.0261C65.1164 43.5675 62.0405 44.8493 62.0405 44.8493C62.0405 44.8493 60.6626 46.5248 60.2532 47.3055C57.5442 52.4909 55.9895 58.8462 55.9828 59.1034C56.3519 59.2578 56.7389 59.4322 57.1192 59.6336C58.562 60.3941 60.5999 60.1593 61.7475 60.5888C62.8951 61.0183 62.7966 59.3696 62.9823 58.7164C63.1657 58.0632 64.9195 53.7302 66.2886 50.3814C66.9194 48.8401 67.4898 46.5763 67.1946 44.6547C66.8993 44.3326 66.6107 44.1201 66.3579 44.0261H66.3624Z" fill="#468A5C"/>
<path d="M57.6449 65.3222C57.5755 64.9732 57.4547 64.6467 57.2959 64.3491C57.2959 64.3491 57.2959 64.3469 57.2937 64.3424C57.287 64.3312 57.2825 64.3223 57.2758 64.3111C57.0924 63.9823 52.9316 57.5755 52.9316 57.5755C50.9429 54.0165 49.0325 50.6029 47.9185 48.6254C47.621 47.8111 46.7642 47.3122 45.8873 47.4867C44.9187 47.6813 44.2878 48.6231 44.4825 49.594C44.5138 49.7528 44.5652 49.9027 44.6346 50.0391C44.6346 50.0391 46.1759 54.0008 48.0169 58.7074C48.0191 58.7142 51.3008 67.4429 51.3097 67.4653C51.9697 68.9059 53.5512 69.7582 55.173 69.436C57.0655 69.058 58.0252 67.2169 57.6471 65.3222H57.6449Z" fill="#9E5959"/>
<path d="M48.2026 50.2785L51.8287 48.3345C52.6407 47.8849 52.6832 47.4286 52.4998 47.2317L41.807 35.6218C41.675 35.4786 41.4603 35.445 41.2903 35.5412L37.0914 37.9415C36.8588 38.0757 36.4136 38.4717 36.4136 38.4717L47.6836 50.198C47.8156 50.3411 48.0303 50.3747 48.2003 50.2785H48.2026Z" fill="#A7C7E8"/>
<path d="M47.5964 50.7572L51.7952 48.3569C52.0278 48.2227 52.077 47.9073 51.8959 47.7082L41.2031 36.0982C41.0711 35.9551 40.8563 35.9215 40.6863 36.0177L36.4875 38.418C36.2548 38.5522 36.2056 38.8676 36.3868 39.0667L47.0796 50.6767C47.2116 50.8198 47.4264 50.8534 47.5964 50.7572Z" fill="#87AFD9"/>
<path d="M48.6612 49.0906C48.2496 47.5628 47.234 47.3503 46.7351 46.5584C46.2363 45.7687 45.4131 44.384 45.3258 44.1782C45.2386 43.9724 45.2386 43.4154 45.2073 42.4759C45.1782 41.5363 44.6793 41.212 44.6189 41.3305C44.5608 41.4491 44.3259 43.0038 44.355 43.4154C44.3841 43.827 44.8829 46.498 44.7375 46.4107C44.5899 46.3235 43.0933 44.1491 42.9748 43.7979C42.8562 43.4445 42.5922 42.2992 42.3283 41.1851C42.0643 40.0689 41.3015 40.1628 41.3015 40.1628L41.3596 41.3596C41.1538 40.391 40.4783 40.0666 40.4201 40.1852C40.3642 40.2971 40.362 42.1672 40.3866 42.6235C40.3396 42.4244 40.2904 42.2209 40.2434 42.0173C40.0175 41.0621 39.3643 41.1426 39.3643 41.1426C39.3643 41.1426 39.6663 44.0172 39.7982 44.5227C39.8005 44.5227 40.2993 46.5718 40.6259 46.97C41.0353 47.4666 42.798 48.8491 43.7689 49.9944C44.7375 51.1397 45.8045 52.9204 45.8045 52.9204L49.8199 52.0502C49.8199 52.0502 49.0728 50.6207 48.6612 49.0929V49.0906Z" fill="#9E5959"/>
<path d="M40.3888 42.6213C40.7132 44.0239 41.1829 45.6971 42.0419 46.7686C40.9794 46.1378 40.6259 44.006 40.3888 42.6213Z" fill="#723333"/>
<path d="M41.3731 41.3574C41.4201 41.722 41.5095 42.4558 41.5543 42.8204V42.807C41.9815 44.0127 42.3976 45.2341 43.1 46.2989C42.3238 45.7128 41.9681 44.6771 41.7198 43.7644C41.7176 43.7487 41.4335 42.8472 41.4335 42.8293C41.4111 42.4625 41.3686 41.722 41.3507 41.3574C41.3507 41.344 41.3708 41.3417 41.3731 41.3574Z" fill="#723333"/>
<path d="M72.2457 38.3576C71.1473 38.2144 70.0289 38.2726 68.9506 38.5276C67.8277 38.7938 66.387 39.192 65.3536 39.4291C63.5349 39.8452 61.7721 40.5118 60.6246 41.4088C59.8371 42.3618 60.2443 45.724 60.0832 47.5628C59.9222 49.4038 58.8685 51.9316 58.5509 54.0791C58.2332 56.2244 58.9737 58.7209 60.7409 59.7074C60.7409 59.7074 61.3404 61.6066 61.714 63.9129C62.0876 66.2193 62.1301 70.1631 62.1301 70.1631C62.1301 70.1631 80.5405 67.7851 80.4599 66.0202C80.3279 63.1881 80.2429 58.9401 80.697 56.0253C81.433 51.2941 82.1086 49.0034 82.632 46.6367C83.189 44.1134 82.5605 42.0867 79.9969 40.7087C77.4333 39.3329 75.2768 38.8632 75.2768 38.8632C75.2768 38.8632 73.8541 38.5656 72.2479 38.3554L72.2457 38.3576Z" fill="#9E5959"/>
<path d="M75.5944 38.9638L72.3285 29.6759C71.8743 27.931 70.2167 26.7186 68.3623 26.8796C66.2931 27.0608 64.7607 28.884 64.9397 30.9532C64.9531 31.1075 64.9755 31.2597 65.0068 31.4073C65.0404 31.5706 65.0873 31.7317 65.141 31.886L67.7762 41.2635C67.812 41.4245 67.8545 41.5811 67.9082 41.7332C68.5077 43.4602 70.219 44.6279 72.1227 44.4623C74.3708 44.2655 76.0329 42.2858 75.8383 40.0398C75.8047 39.6618 75.722 39.3016 75.5967 38.9638H75.5944Z" fill="#9E5959"/>
<path d="M72.2972 29.5729C71.805 27.8863 70.1787 26.723 68.3601 26.8819C66.2909 27.0631 64.7585 28.8862 64.9375 30.9554C64.9509 31.1098 64.9733 31.2619 65.0046 31.4095C65.0381 31.5728 65.0851 31.7339 65.1388 31.8882L67.4675 40.1718C68.4339 39.7848 74.382 36.8454 72.2972 29.5729Z" fill="#914D4D"/>
<path d="M86.0367 77.0955C85.7258 74.4491 82.5649 69.4226 82.4799 67.982C82.3949 66.5391 81.0259 64.9442 81.0259 64.9442C81.0259 64.9442 81.3256 63.857 81.3704 62.8235C81.4151 61.79 81.1601 60.6201 81.1601 60.6201C81.1601 60.6201 81.4934 59.949 81.5202 59.1101C81.5493 58.2712 82.1555 52.426 82.6298 50.3277C83.104 48.2294 82.8132 41.4827 81.9318 40.136C79.4398 38.8453 75.411 38.465 75.411 38.465C74.3328 39.872 69.2906 42.0039 67.7449 41.5811C66.1969 41.1583 67.114 38.9593 67.114 38.9593C64.2082 39.5723 61.7162 40.3463 60.5261 41.3708C60.0228 42.1784 59.7834 44.6681 59.8215 45.9208C59.8573 47.1736 59.4703 49.9407 58.8954 51.2113C58.3227 52.4797 57.8686 55.2536 58.4055 57.1103C58.9423 58.967 60.2935 59.7588 60.2935 59.7588C59.9825 60.6849 60.7968 61.1995 60.7968 61.1995C60.8438 69.2481 60.0564 70.7424 60.3427 73.5074C60.3427 73.5074 59.4568 73.7064 59.8819 74.1874C60.3069 74.6683 60.893 73.5387 66.8076 74.948C72.7222 76.3573 75.2365 74.9726 76.6481 75.7578C78.5204 76.8002 80.5114 78.9589 81.3771 80.0796L86.3298 80.0461C86.3454 79.3638 86.2134 78.6368 86.0345 77.0955H86.0367Z" fill="#4F9D69"/>
<path d="M58.9334 58.3182C59.5396 59.3159 60.2935 59.7588 60.2935 59.7588C60.2935 59.7588 61.2576 59.9825 62.1144 59.9714C62.1703 59.9714 62.1837 59.8908 62.1301 59.8729C61.5395 59.6671 60.0407 59.0989 58.9334 58.316V58.3182Z" fill="#468A5C"/>
<path d="M86.332 80.0416C86.332 80.0013 86.332 79.9611 86.332 79.9208C86.332 79.9208 86.332 79.9163 86.332 79.9141C86.332 79.4555 86.2649 78.9522 86.1687 78.1849C86.1687 78.1804 86.1687 78.1737 86.1687 78.1692C86.1665 78.1469 86.162 78.1245 86.1598 78.0999C86.1218 77.8068 86.0815 77.4758 86.0368 77.0955C85.7392 74.5453 82.7931 69.7895 82.5023 68.1543C82.4911 68.0916 82.4822 68.0335 82.4799 67.9798C82.4486 67.6286 82.3636 67.2841 82.2383 66.953C82.2383 66.9485 82.2339 66.9418 82.2316 66.9373C82.2182 66.9038 82.2048 66.8702 82.1914 66.8344C82.0415 66.4698 81.8513 66.1276 81.6702 65.8367C81.6634 65.8278 81.659 65.8166 81.6523 65.8077C81.65 65.8032 81.6455 65.7987 81.6433 65.7942C81.4509 65.4945 81.2384 65.2104 81.0259 64.9419C81.0259 64.9419 81.1512 64.4878 81.2496 63.8906C81.3279 63.2664 81.3682 62.4992 81.3368 61.8213C81.2764 61.1547 81.1579 60.6178 81.1579 60.6178C81.3145 60.1503 81.4353 59.5329 81.5359 58.826C81.5919 58.0453 81.7798 56.1819 82.0102 54.3274C82.1556 52.9249 82.3368 51.5267 82.6253 50.3411C82.6253 50.3367 82.6253 50.3322 82.6276 50.3277C82.6276 50.3232 82.6276 50.3188 82.6298 50.3143C82.8759 49.2092 82.7797 47.055 82.509 45.0574C80.4174 46.5338 80.1154 45.941 77.7353 46.6479C77.0441 48.0974 76.6302 54.1709 76.4915 55.2446C76.3573 56.287 74.5946 59.0878 68.6844 59.0967C68.6129 59.0967 68.6017 59.1996 68.671 59.213C69.4652 59.3808 71.1026 59.6559 73.0242 59.5687C74.2434 59.4479 75.6258 59.0497 75.8249 58.9468C75.8674 58.9244 76.6817 63.0405 76.7152 63.4566C76.7488 63.8727 70.7671 67.5413 69.4338 68.9685C68.1006 70.3957 65.4095 72.1585 64.6758 72.2502C64.0852 72.324 62.0809 73.5767 60.336 73.4917C60.336 73.4962 60.336 73.5029 60.336 73.5074C59.9445 73.6192 59.7678 73.7982 59.7611 73.957C59.7656 74.0107 59.788 74.0711 59.8349 74.136C59.9222 74.2277 60.0832 74.2948 60.3069 74.3104C60.5933 74.2881 61.0541 74.1964 61.9019 74.2098C61.931 74.2098 61.9623 74.2098 61.9914 74.2098C61.9959 74.2098 62.0003 74.2098 62.0026 74.2098C62.5618 74.221 63.2709 74.2791 64.1948 74.4223C64.206 74.4223 64.2172 74.4268 64.2261 74.4268C64.2776 74.4357 64.329 74.4424 64.3827 74.4514C65.0672 74.5632 65.8614 74.722 66.7875 74.9413C66.792 74.9413 66.7964 74.9435 66.8031 74.9457C68.4182 75.3305 69.7783 75.5072 70.9326 75.5766C72.4627 75.628 73.5745 75.4535 74.8362 75.5095C75.6057 75.4759 76.1828 75.5028 76.6414 75.7555C77.5161 76.1492 78.5853 77.0642 79.5159 78.0194C79.5383 78.0417 79.5629 78.0641 79.5853 78.0887C79.6144 78.0574 77.5519 74.523 77.789 73.693C78.0283 72.8519 80.8715 71.6596 81.5583 71.7983C82.2451 71.937 81.4107 72.6215 82.3122 74.2389C82.8021 75.1158 83.8356 77.648 84.4395 80.0595L86.3231 80.0461C86.3231 80.0461 86.3231 80.0438 86.3231 80.0416H86.332Z" fill="#468A5C"/>
<path d="M60.8013 61.186C61.2308 61.2934 61.6737 61.1883 62.0697 61.4209V61.4478C61.6625 61.7319 61.1749 61.3896 60.7924 61.2106L60.8013 61.186Z" fill="#468A5C"/>
<path d="M64.8324 15.2204C64.8324 15.2204 72.2457 13.753 74.1427 22.4817C75.9658 30.8659 70.5747 39.3598 64.1501 39.0309C62.0809 38.8028 59.7924 34.7538 58.1751 28.2352C56.5577 21.7167 58.2936 16.5291 64.8301 15.2204H64.8324Z" fill="#9E5959"/>
<path d="M63.895 31.2172C63.895 31.2172 63.9711 30.4185 65.6667 29.8839C67.0447 29.4477 68.1431 29.3068 68.4205 30.1635C68.8857 31.2395 63.7519 33.1678 63.895 31.2172Z" fill="#914D4D"/>
<path d="M61.4456 32.1343C61.5529 32.5034 60.7655 33.1096 59.7991 33.4273C59.5598 32.8233 59.3271 32.1746 59.1012 31.4856C60.3427 31.2104 61.3024 31.3782 61.4456 32.1343Z" fill="#914D4D"/>
<path d="M65.405 28.6424C65.5012 29.1166 65.2909 29.5618 64.9352 29.6333C64.5795 29.7049 64.2104 29.3783 64.1143 28.9041C64.0181 28.4298 64.2283 27.9847 64.584 27.9131C64.9397 27.8415 65.3088 28.1681 65.405 28.6424Z" fill="#121D3F"/>
<path d="M60.8214 29.4611C60.9154 29.9197 60.7118 30.347 60.3673 30.4163C60.0228 30.4856 59.6694 30.1725 59.5777 29.7139C59.4837 29.2553 59.6873 28.828 60.0318 28.7587C60.3763 28.6894 60.7297 29.0025 60.8214 29.4611Z" fill="#121D3F"/>
<path d="M63.1099 33.0202C62.8258 33.0895 62.4522 33.1544 62.1882 33.1007C61.7655 33.0157 61.7923 32.6533 61.8191 32.3021C61.8236 32.2439 61.8281 32.1813 61.8326 32.1119C61.9668 29.8369 61.8236 28.7207 61.8214 28.7095C61.8057 28.5842 61.8907 28.4701 62.016 28.4545C62.1413 28.4388 62.2554 28.526 62.271 28.6491C62.2777 28.696 62.4209 29.8145 62.2844 32.1388C62.28 32.2104 62.2755 32.2752 62.271 32.3356C62.2621 32.4587 62.2509 32.5974 62.2621 32.651C62.2665 32.651 62.271 32.6533 62.2777 32.6555C62.5327 32.707 63.0786 32.5728 63.3649 32.4766C63.4835 32.4363 63.6132 32.4989 63.6535 32.6197C63.6937 32.7383 63.6311 32.868 63.5103 32.9083C63.4745 32.9217 63.3157 32.9732 63.1099 33.0246V33.0202Z" fill="#723333"/>
<path d="M63.1971 26.2913C63.1971 26.2913 62.8146 26.336 62.828 26.6112C62.8436 26.9176 62.8235 27.0698 63.0136 27.1123C63.2016 27.1548 64.9307 26.8147 65.8792 26.6939C66.8389 26.5709 67.2662 26.5732 67.3109 26.4658C67.3579 26.3606 66.4698 25.9759 65.4945 26.0519C64.3603 26.1392 64.3849 26.128 63.1971 26.2913Z" fill="#142347"/>
<path d="M60.4948 26.8371C60.4948 26.8371 60.8662 26.7364 60.9556 26.9982C61.0541 27.289 61.1279 27.4232 60.9691 27.5328C60.8102 27.6402 59.5374 27.808 58.6135 28.0451C57.6762 28.2845 57.7187 28.2151 57.6382 28.1346C57.5554 28.054 57.6382 27.6715 58.5732 27.3807C59.6604 27.0429 59.3338 27.1235 60.4971 26.8371H60.4948Z" fill="#142347"/>
<path d="M61.3605 34.8455C61.7565 35.2795 63.8212 36.9796 65.8323 33.9351C65.8703 33.8769 65.8166 33.7986 65.7473 33.8143C64.9755 33.9798 61.9802 34.6196 61.3919 34.7449C61.3449 34.7538 61.3292 34.8097 61.3605 34.8455Z" fill="white"/>
<path d="M64.3693 36.3197C64.3424 36.3264 64.3156 36.3287 64.2865 36.3197C63.7854 36.2056 63.2239 36.474 63.2195 36.4785C63.1367 36.5188 63.036 36.4852 62.9958 36.4025C62.9555 36.3197 62.9891 36.219 63.0718 36.1788C63.0987 36.1653 63.7429 35.8544 64.3603 35.9953C64.4498 36.0155 64.5057 36.105 64.4856 36.1944C64.4722 36.2571 64.4252 36.3018 64.367 36.3175L64.3693 36.3197Z" fill="#914D4D"/>
<path d="M80.5047 26.2219C80.2564 25.3316 79.2296 25.8976 79.2296 25.8976C79.2296 25.8976 79.9812 25.2377 79.9454 24.8507C80.0886 23.8328 78.3616 24.0387 78.3169 23.6673C78.2744 23.296 78.6144 23.6628 78.8627 23.0275C79.111 22.3922 78.6099 22.0321 78.6099 22.0321C78.5138 21.9225 78.1267 21.9404 77.6369 21.7144C77.3774 21.2536 77.4646 20.8084 76.8494 20.3163C76.1716 19.7727 76.062 19.8107 76.0106 19.0323C75.9591 18.2538 75.4625 17.3724 74.7131 16.9407C73.9637 16.509 73.7445 16.6611 73.3597 15.8893C72.975 15.1176 72.4135 14.7552 71.6305 14.5851C70.8476 14.4129 70.5188 14.6411 69.8052 14.2093C69.0938 13.7776 67.9798 13.8335 67.3176 14.1042C66.6555 14.3749 66.4676 14.3413 65.1343 14.4397C63.8011 14.5382 62.4231 15.7283 62.4231 15.7283C62.4231 15.7283 61.1592 15.5359 60.5217 15.8423C59.8841 16.151 59.6716 16.6991 59.2533 16.8535C58.835 17.01 57.6583 17.623 57.4771 18.4686C57.2937 19.3119 57.0007 19.5155 56.7121 19.9651C56.4235 20.4147 55.7972 21.3901 56.088 22.475C56.3788 23.5577 56.5197 24.495 56.2848 25.2668C56.0499 26.0385 56.1663 26.9512 56.5689 27.4143C56.7479 27.6201 56.8843 27.8572 56.9581 28.101C56.9783 28.2151 56.9962 28.327 57.0163 28.4366C57.0253 28.6334 56.9895 28.8303 56.8955 29.0159C56.6315 29.5394 56.5264 30.4812 56.8306 30.9219C56.976 31.1321 57.0409 31.32 57.0543 31.5035C56.5823 32.6846 56.0969 33.3646 57.5487 33.5883C57.5487 33.5883 58.0409 35.2952 60.3092 34.6308C60.3092 34.6308 57.5711 27.9019 57.9089 23.9179C58.1527 23.5443 58.6135 23.3474 59.6135 23.2915C60.6134 23.2378 60.902 22.7501 60.902 22.7501C62.2397 22.8374 62.2397 21.6495 62.2397 21.6495C62.3739 23.8709 64.2306 24.2512 64.2306 24.2512C64.3872 24.6941 64.584 25.3943 65.2193 25.6806C65.8546 25.9669 66.7405 25.7276 67.3064 26.1638C67.7941 26.5396 68.5099 27.2286 68.9193 27.1704C69.6598 27.544 70.1653 27.9556 70.4807 28.5328C71.1138 29.687 71.5478 34.5905 75.2656 32.1589C75.2656 32.1589 76.7868 32.4184 77.4601 31.7137C77.4601 31.7137 78.7442 31.4699 79.2721 29.7989C80.5941 29.2464 80.0595 27.8326 80.0595 27.8326C80.4286 27.6782 80.7507 27.1145 80.5047 26.2242V26.2219Z" fill="black"/>
<path d="M62.2397 21.6473C61.8012 20.0546 61.3986 17.1196 62.4209 15.7282C61.8079 17.3076 62.2374 19.9875 62.2397 21.6473Z" fill="#101D3D"/>
<path d="M70.8275 25.3943C70.8275 25.3943 71.9012 25.4569 71.9571 27.1436C72.0131 28.7632 71.078 30.6512 69.8946 30.3738C69.5166 30.2619 69.1631 28.8504 69.0826 27.5843C69.0021 26.3181 69.5658 25.4166 70.8252 25.3943H70.8275Z" fill="#9E5959"/>
<path d="M70.0624 29.1591C69.5434 26.9781 70.653 26.3316 70.6999 26.3047C70.7581 26.2734 70.8297 26.2935 70.861 26.3495C70.8923 26.4076 70.8722 26.4792 70.8163 26.5105C70.785 26.5284 70.1944 26.8819 70.1631 27.9847C70.4852 27.5888 71.0131 27.5105 71.04 27.506C71.1048 27.497 71.1652 27.5418 71.1742 27.6066C71.1831 27.6715 71.1384 27.7319 71.0735 27.7409C71.0422 27.7453 70.3376 27.855 70.1832 28.4634C70.2033 28.658 70.2391 28.8683 70.2928 29.101C70.3062 29.1591 70.2749 29.2173 70.2212 29.2396C70.2168 29.2396 70.2101 29.2441 70.2056 29.2441C70.1407 29.2598 70.0781 29.2195 70.0624 29.1569V29.1591Z" fill="#723333"/>
<path d="M84.8243 42.9233C84.6967 42.5944 84.5245 42.2768 84.3075 41.977C82.934 40.0778 80.2809 39.6528 78.3817 41.0263C77.0686 41.977 76.4624 43.5362 76.6637 45.0372C76.6637 45.0372 76.2902 46.1199 77.7755 49.1734C79.2631 52.2269 84.8891 65.3938 84.8891 65.3938C84.9652 65.5593 85.0591 65.7226 85.171 65.8748C86.0859 67.1409 87.871 67.4451 89.1215 66.5078C90.07 65.7965 91.0252 64.6198 90.7008 63.3939C90.7008 63.3939 86.5736 46.3392 84.822 42.921L84.8243 42.9233Z" fill="#9E5959"/>
<path d="M88.3162 54.0903C86.6877 54.493 83.1063 56.0745 81.2384 56.9246C81.773 58.1527 82.3054 59.3808 82.7909 60.506C84.4194 59.8595 87.7704 58.486 88.5578 57.7992C88.8106 57.5867 89.0432 57.58 89.2491 57.6717C88.9627 56.551 88.6451 55.3341 88.314 54.0903H88.3162Z" fill="#914D4D"/>
<path d="M79.1647 40.1248C78.044 40.4246 77.129 40.9838 76.6526 42.0419C76.1828 43.0866 75.8226 44.6167 76.2991 46.5405C77.2386 50.3389 78.8515 53.6988 79.3459 54.4191C79.8403 55.1395 79.7955 55.4459 79.9275 55.7479C80.0595 56.0499 80.7216 59.5351 81.046 59.8617C81.3681 60.1883 88.4527 58.533 89.4884 55.3095C89.551 54.9583 89.4727 54.7771 89.032 54.4303C88.5913 54.0836 88.4034 51.7549 87.5243 49.9094C87.5243 49.9094 86.2246 44.9701 84.9495 42.7935C83.8601 40.9324 81.9967 39.3687 79.1669 40.127L79.1647 40.1248Z" fill="#4F9D69"/>
<path d="M77.6055 43.0463C76.9635 43.959 77.0933 44.9075 76.7242 45.894L76.6772 45.8985C76.3707 45.4063 76.4356 44.8135 76.6772 44.3192C76.8785 43.8181 77.1827 43.3662 77.5697 43.0172L77.6055 43.0485V43.0463Z" fill="#468A5C"/>
<path d="M3.4942 76.071C5.90344 78.8336 9.51617 80.583 13.3705 80.5561L61.365 80.2206C71.0803 79.7866 77.0217 79.205 77.0217 78.5652V75.3574C77.0217 75.3574 47.3481 76.1358 18.6095 76.1358C13.5181 76.1358 8.42899 76.1112 3.4942 76.0732V76.071Z" fill="#A87663"/>
<path d="M18.6095 72.9258C12.6703 72.9258 6.93687 72.9638 1.53455 73.0309C2.36223 74.8652 3.64626 76.4714 5.22781 77.7218C9.52506 77.7643 14.0057 77.7867 18.6095 77.7867C50.8713 77.7867 77.0216 76.6995 77.0216 75.3574C77.0216 74.0152 50.869 72.928 18.6095 72.928V72.9258Z" fill="#C4907E"/>
<path d="M23.4883 75.6482C27.5962 75.6482 30.9263 75.2415 30.9263 74.7399C30.9263 74.2383 27.5962 73.8317 23.4883 73.8317C19.3805 73.8317 16.0504 74.2383 16.0504 74.7399C16.0504 75.2415 19.3805 75.6482 23.4883 75.6482Z" fill="#B57E6B"/>
<path d="M58.3361 75.968C61.8819 75.968 64.7563 75.6546 64.7563 75.2679C64.7563 74.8812 61.8819 74.5677 58.3361 74.5677C54.7903 74.5677 51.916 74.8812 51.916 75.2679C51.916 75.6546 54.7903 75.968 58.3361 75.968Z" fill="#B57E6B"/>
<path opacity="0.54" d="M57.1304 62.7161C57.1304 62.7161 55.9895 61.6066 56.5555 59.8841C57.1214 58.1594 58.3451 57.1304 58.1057 56.0656C57.8664 55.0008 55.5556 52.7817 58.656 51.1643C58.656 51.1643 57.3474 52.1665 58.2959 53.5892C59.2443 55.0097 60.4053 55.5846 60.374 57.3295C60.3427 59.0743 56.768 58.8998 57.1304 62.7184V62.7161Z" fill="white"/>
<path opacity="0.54" d="M62.2486 56.7098C62.2486 56.7098 63.1188 58.269 61.3023 59.3383C59.2935 60.5194 59.562 61.5574 60.5104 62.9779C60.5104 62.9779 60.072 61.7744 60.9042 60.9758C61.7363 60.1772 64.9352 59.5687 62.2508 56.7098H62.2486Z" fill="white"/>
<path d="M62.7541 70.9594C61.6357 70.9751 60.7118 70.0781 60.6961 68.9573C60.6805 67.8388 61.5775 66.915 62.6982 66.8993C63.8167 66.8837 64.7406 67.7807 64.7563 68.9014C64.7719 70.0221 63.8749 70.9438 62.7541 70.9594ZM62.7049 67.425C61.875 67.4362 61.2084 68.1207 61.2218 68.9506C61.233 69.7805 61.9175 70.4472 62.7474 70.4337C63.5774 70.4226 64.244 69.738 64.2306 68.9081C64.2194 68.0782 63.5349 67.4116 62.7049 67.425Z" fill="#4D4C70"/>
<path d="M63.3335 66.2797L53.4863 66.4184C53.4863 66.4184 52.3029 71.1205 55.3072 74.5766C55.3139 74.9748 56.759 75.2768 58.5374 75.25C60.3158 75.2231 61.752 74.8831 61.7475 74.4849C64.6533 70.946 63.3358 66.2797 63.3358 66.2797H63.3335Z" fill="#676694"/>
<path d="M54.8285 73.9727C54.9739 74.1785 55.1328 74.3798 55.305 74.5766C55.3117 74.9748 56.7568 75.2768 58.5352 75.25C60.3136 75.2231 61.7498 74.8831 61.7453 74.4849C64.6511 70.946 63.3336 66.2797 63.3336 66.2797L53.4863 66.4184C53.4863 66.4184 53.4237 66.6644 53.3655 67.0872C54.3274 67.3489 57.2959 68.0603 60.4009 67.7986C64.1299 67.4854 62.2218 74.4984 54.8308 73.9704L54.8285 73.9727Z" fill="#5C5B84"/>
<path d="M58.427 67.0673C61.146 67.0288 63.3456 66.6752 63.3399 66.2774C63.3343 65.8796 61.1256 65.5883 58.4066 65.6268C55.6877 65.6652 53.4881 66.0188 53.4937 66.4166C53.4993 66.8144 55.708 67.1057 58.427 67.0673Z" fill="#676694"/>
<path d="M53.6608 66.6063C54.2335 66.9038 56.1484 67.1006 58.4189 67.0693C60.6894 67.038 62.5976 66.7852 63.1635 66.472C62.5909 66.1745 60.676 65.9777 58.4055 66.009C56.1349 66.0403 54.2268 66.2931 53.6608 66.6063Z" fill="#A86D5D"/>
<path d="M24.0498 75.0688H22.5824C20.3432 75.0688 18.567 73.1785 18.7079 70.9438L19.7146 50.972H26.9132L27.9198 70.9438C28.0608 73.1785 26.2868 75.0688 24.0454 75.0688H24.0498Z" fill="#D7EBF9"/>
<path d="M26.9557 50.972C26.9557 51.1084 25.3361 51.218 23.3362 51.218C21.3364 51.218 19.7168 51.1084 19.7168 50.972C19.7168 50.8355 21.3364 50.7259 23.3362 50.7259C25.3361 50.7259 26.9557 50.8355 26.9557 50.972Z" fill="#C2E1F9"/>
<path d="M26.8863 60.6626H19.7458L19.3499 70.6172C19.2291 72.541 20.757 74.1695 22.6852 74.1695H23.9491C25.8774 74.1695 27.4053 72.541 27.2845 70.6172L26.8885 60.6626H26.8863Z" fill="#C2E1F9"/>
<path d="M23.3161 60.9064C25.2879 60.9064 26.8864 60.7973 26.8864 60.6626C26.8864 60.5279 25.2879 60.4188 23.3161 60.4188C21.3444 60.4188 19.7459 60.5279 19.7459 60.6626C19.7459 60.7973 21.3444 60.9064 23.3161 60.9064Z" fill="#CFE7FA"/>
<path d="M27.0452 42.9859C26.987 42.968 26.9244 43.0016 26.9065 43.0598C26.8819 43.138 25.864 46.5315 24.7321 51.2001C24.8104 51.2001 24.8865 51.1957 24.9603 51.1934C26.0833 46.5629 27.0921 43.2029 27.1167 43.1246C27.1346 43.0665 27.1011 43.0038 27.0429 42.9859H27.0452Z" fill="#AFBA74"/>
<path d="M26.6738 39.0712C26.6738 39.0712 23.3474 38.7356 22.7501 40.787C22.3453 42.3081 25.4882 42.8786 26.2018 42.8361C26.2018 42.8361 26.7946 42.8517 27.5888 43.4602C28.3806 44.0709 30.385 45.0261 31.5661 43.9322C32.7472 42.8383 31.6131 42.1493 31.3715 41.2702C31.1299 40.391 30.1792 39.6864 28.9041 39.5164C27.629 39.3463 27.5306 38.9415 26.6761 39.0712H26.6738Z" fill="#FFACC0"/>
<path d="M26.9422 42.0442C26.506 41.7802 26.1996 41.4133 26.0877 41.0219C26.0094 40.7445 26.034 40.4783 26.1615 40.2702C26.2801 40.0756 26.5843 39.9772 27.0004 40.004C27.6133 40.0398 28.356 40.3463 28.5887 40.8608C28.7743 41.2702 28.5998 41.4737 28.479 41.5587C28.1972 41.7578 27.6357 41.6907 27.365 41.429C27.1973 41.2657 27.2129 41.1248 27.2375 41.0554C27.28 40.9369 27.4075 40.8519 27.5641 40.8384C27.7207 40.825 27.8594 40.8921 27.9265 41.0129C27.9556 41.0666 27.9377 41.1337 27.884 41.1628C27.8303 41.1919 27.7632 41.174 27.7341 41.1203C27.705 41.0688 27.6379 41.0554 27.582 41.0599C27.5171 41.0644 27.459 41.0957 27.4478 41.1315C27.4366 41.1628 27.4635 41.2165 27.5216 41.2724C27.714 41.4603 28.1569 41.5162 28.3538 41.3798C28.4679 41.2992 28.479 41.1561 28.3873 40.9547C28.1927 40.5252 27.5194 40.259 26.987 40.2277C26.6716 40.2098 26.421 40.2725 26.3494 40.3888C26.2555 40.5431 26.2376 40.7489 26.3002 40.9659C26.4076 41.3462 26.7387 41.7041 27.2062 41.9435C27.7408 42.2164 28.5775 42.3327 29.0786 42.0106C29.3403 41.8428 29.4633 41.5744 29.4454 41.2165C29.3873 40.0622 26.6671 39.1898 26.6402 39.1808C26.5821 39.1629 26.5508 39.1003 26.5687 39.0421C26.5866 38.984 26.6492 38.9526 26.7074 38.9705C26.8259 39.0086 29.5998 39.8989 29.6669 41.2053C29.6893 41.6415 29.5282 41.9838 29.1994 42.1963C28.6289 42.5654 27.6961 42.4423 27.1078 42.1403C27.0519 42.1113 26.9982 42.0822 26.9445 42.0486L26.9422 42.0442Z" fill="#FFC7D7"/>
<path d="M24.7343 51.2001C23.2892 57.1617 21.6607 65.1992 21.6831 71.0668C21.7323 71.0668 21.7815 71.0668 21.8307 71.0668C21.8553 71.0668 21.8799 71.0668 21.9046 71.0668C21.8799 65.1992 23.5174 57.146 24.9625 51.1912C24.8865 51.1934 24.8104 51.1957 24.7343 51.1979V51.2001Z" fill="#CADCCE"/>
<path d="M84.7639 62.2374C84.7639 62.2374 74.7265 70.38 73.6237 71.1384C73.4089 71.2525 72.3419 71.55 72.2054 71.7737C71.8005 72.4403 73.7467 75.1448 75.165 74.59C75.165 74.59 83.793 69.7246 88.9694 66.6823C91.3921 64.7563 90.4212 62.3828 89.1215 61.5932C88.0746 60.9578 86.0859 61.3225 84.7639 62.2396V62.2374Z" fill="#9E5959"/>
<path d="M83.9831 62.9107C84.5446 62.2396 85.7459 61.4768 86.5445 62.2195L86.5333 62.2777C86.0725 62.5036 85.719 62.517 85.2493 62.526C84.8332 62.5819 84.4126 62.7251 84.0189 62.9577L83.9809 62.913L83.9831 62.9107Z" fill="#914D4D"/>
<path d="M75.1829 69.9304C75.1829 69.9304 72.9615 71.0109 72.2323 70.9863C71.503 70.9617 67.6353 71.0892 67.0335 71.2368C66.4318 71.3845 64.2373 74.7489 64.0293 75.1806C63.8235 75.6124 64.3693 75.9076 64.9621 75.4714L64.6534 76.2902C64.6534 76.2902 64.9733 76.8293 65.9889 76.0195L65.8166 76.5452C65.8166 76.5452 66.1633 77.0261 67.5682 76.2186L67.4205 76.6727C67.3624 76.8539 67.5078 77.0351 67.6957 77.0172C67.9395 76.9948 68.3064 76.9076 68.794 76.6436C69.5501 76.2365 69.9975 75.8137 70.3823 75.6728C70.7671 75.5318 73.2591 75.8271 74.2344 75.4692C75.0397 75.1739 76.6078 73.7087 77.5496 73.1204C78.4936 72.532 77.9209 68.3176 75.1806 69.9282L75.1829 69.9304Z" fill="#9E5959"/>
<path d="M64.9621 75.4714C65.4923 74.6795 66.0963 73.8049 66.6555 73.0242C66.8814 72.7602 67.0872 72.2972 67.4049 72.1473C67.9306 72.0131 68.5211 71.9907 69.0446 72.06C68.5234 72.2077 67.9351 72.201 67.4295 72.4068L67.4407 72.3978C66.6846 73.221 65.6779 74.6862 64.9621 75.4714Z" fill="#723333"/>
<path d="M65.9888 76.0195C66.6376 75.118 67.2729 74.2031 67.9976 73.3575C68.3735 72.975 69.0199 72.9705 69.5054 72.9839C69.0982 73.1696 68.5725 73.1763 68.2258 73.4783C67.4697 74.212 66.689 75.3148 65.9888 76.0195Z" fill="#723333"/>
<path d="M67.5682 76.2186C68.0088 75.6482 68.4451 75.0732 68.9193 74.5297C69.3823 74.1852 70.1541 74.1606 70.644 74.2791C70.1228 74.4447 69.5345 74.4446 69.0558 74.6885C69.0043 74.6907 67.6599 76.2007 67.5659 76.2208L67.5682 76.2186Z" fill="#723333"/>
<path d="M54.9628 28.5283L46.8492 17.5603V2.28395C46.8492 1.02229 45.8269 0 44.5652 0H20.0031C18.7415 0 17.7192 1.02229 17.7192 2.28395V18.341C17.7192 19.6027 18.7415 20.625 20.0031 20.625H44.0798L54.9605 28.5305L54.9628 28.5283Z" fill="#E6766C"/>
<path d="M32.5303 7.45139C29.4388 4.13394 24.7008 3.71115 24.9514 9.04189C25.2064 14.5001 32.5303 18.2202 32.5303 18.2202C32.5303 18.2202 39.8542 14.5001 40.1092 9.04189C40.3597 3.71115 35.6196 4.13394 32.5303 7.45139Z" fill="white"/>
</svg>
